<?xml version="1.0" encoding="utf-8"?>
<!-- Generator: Adobe Illustrator 18.0.0, SVG Export Plug-In . SVG Version: 6.00 Build 0)  -->
<!DOCTYPE svg PUBLIC "-//W3C//DTD SVG 1.1//EN" "http://www.w3.org/Graphics/SVG/1.1/DTD/svg11.dtd">
<svg version="1.1" id="Layer_1" xmlns="http://www.w3.org/2000/svg" xmlns:xlink="http://www.w3.org/1999/xlink" x="0px" y="0px"
	 width="1048.9px" height="199.5px" viewBox="115.6 649.4 1048.9 199.5" enable-background="new 115.6 649.4 1048.9 199.5"
	 xml:space="preserve">
<g>
	<g>
		<g>
			<polygon fill="#FFFFFF" points="294.1,809.3 294.1,752.4 273.4,752.4 273.4,782.1 135.4,782.1 135.4,752.6 115.6,752.6 
				115.6,809.3 			"/>
		</g>
	</g>
	<path fill="#FFFFFF" d="M386,810.8c-27.5,0-48.7-19.8-48.7-54.1V755c0-33.3,21.7-55.7,50.2-55.7c21.3,0,33.5,12.1,39.5,25.6v-66.6
		h-17.4v-8.9h28.3v151.1h17.4v8.7H427v-25.1C421.5,797.1,406.5,810.8,386,810.8z M427.3,755.8v-1.7c0-30.1-15.9-45.9-38.6-45.9
		c-23.2,0-40,16.7-40,46.3v1.7c0,29.7,16.7,45.8,38.3,45.8C409.2,801.9,427.3,785.9,427.3,755.8z"/>
	<path fill="#FFFFFF" d="M461.1,809.3v-8.7H477v-90.3h-16.6v-9.1h27.5v23.9c5.1-13.5,17.6-24.9,41-24.9v10.8
		c-23.6-0.2-41,9.9-41,38.4v51.2h17.9v8.7H461.1z"/>
	<path fill="#FFFFFF" d="M528.9,756v-1.7c0-32.4,23.4-55,52.6-55c29,0,51.9,21.9,51.9,54.8v1.7c0,32.6-23.2,55-52.3,55
		C551.6,810.8,528.9,787.9,528.9,756z M622,756v-1.7c0-28.5-17.6-45.8-40.5-45.8c-23.4,0-41.2,17.6-41.2,45.8v1.7
		c0,27.7,17.4,45.4,41,45.4C604.4,801.6,622,784,622,756z"/>
	<path fill="#FFFFFF" d="M633.8,846.8v-8.7h16.1V710h-16.6V701h27.5v25.8c6.1-14.7,22.2-27.5,41.2-27.5c27.3,0,48.7,20.8,48.7,54.6
		v1.7c0,34-20.7,55.2-48.7,55.2c-21.5,0-35.4-13-41.2-26.5v53.8h17.8v8.7H633.8z M739.1,756v-1.7c0-29.7-17.6-45.8-38.3-45.8
		c-21.2,0-40.3,15.9-40.3,45.8v1.7c0,29.4,17.9,45.4,40.5,45.4C724.1,801.6,739.1,785,739.1,756z"/>
	<path fill="#FFFFFF" d="M783.5,797.6v11.6h-20v-36h19c1.9,11.1,10.6,21.2,25.3,21.2c12.8,0,19-5.3,19-15s-7.5-12.6-23.2-15.4
		c-28.5-4.6-38.6-15-38.6-34c0-19.5,15-31.3,35.5-31.3c16.9,0,23.2,5.3,26.8,12.5v-10.1h19.5v31.8h-18.4
		c-2.2-10.8-10.9-17.4-23.4-17.4c-10.4,0-16.7,4.1-16.7,12.8c0,8,5,11.8,22.2,14.9c25.1,4.1,40.5,10.9,40.5,34
		c0,21.2-14,34.2-39.6,34.2C793.3,811.3,786.4,803.6,783.5,797.6z"/>
	<path fill="#FFFFFF" d="M860.6,809.3v-18.4h13v-70.7h-13.2V701h38.1v89.8H912v18.4H860.6L860.6,809.3z M870.1,668.7
		c0-8.5,6.8-14.7,15.4-14.7c8.5,0,15.4,6.1,15.4,14.7c0,8.2-6.8,14.7-15.4,14.7C877,683.4,870.1,677.1,870.1,668.7z"/>
	<path fill="#FFFFFF" d="M916.6,813.2h24.6c2.2,10.6,10.4,16.7,26.8,16.7c19.3,0,30.1-9.7,30.1-29.2v-15.9
		c-6,10.4-19.5,19.6-35.4,19.6c-27.2,0-48-20.3-48-51.1v-1.5c0-30.4,20.7-53.1,48.8-53.1c17.6,0,28.3,8,34.5,18.8V701h37.6v19H1023
		v81.1c-0.2,31.8-21.5,47.8-55,47.8C934.5,848.9,919.3,833.9,916.6,813.2z M998.9,752.6v-1.4c0-20.5-10.9-32.6-29.2-32.6
		c-18.6,0-29.2,13.5-29.2,33.1v1.7c0,20,12.1,32.4,28.3,32.4C986.3,785.7,998.9,773.2,998.9,752.6z"/>
	<path fill="#FFFFFF" d="M1043,809.3v-18.4h13v-70.7h-13.2V701h38.3v18.3c5.1-10.6,16.7-20.5,34.2-20.5c21.2,0,36.5,12,36.5,41.8
		v50.2h12.8v18.4h-51.2v-18.4h13.5v-48.2c0-15.5-7-22.9-21.2-22.9c-13.2,0-24.6,8.7-24.6,25.4V791h13.5v18.4H1043V809.3z"/>
	<path fill="#FFFFFF" d="M172.8,652.3c-5.8,0-11.3,1-16.6,2.7c17.1,6.3,29.2,22.7,29.2,42v19.1h-31.8l51.1,51.1l51.1-51.1h-31.9
		v-12.8C224.1,675.2,201.2,652.3,172.8,652.3z"/>
</g>
<g>
	<g>
		<g>
			<polygon points="1985.3,844.1 1985.3,776 1960.6,776 1960.6,811.7 1794.9,811.7 1794.9,776.3 1771,776.3 1771,844.1 			"/>
		</g>
	</g>
	<path d="M1839.8,655.9c-7,0-13.7,1.2-19.8,3.2c20.5,7.5,35.2,27.2,35.2,50.4v23.1h-38.3l61.3,61.3l61.3-61.3h-38.3v-15.4
		C1901.1,683.4,1873.6,655.9,1839.8,655.9z"/>
</g>
</svg>
